<?xml version="1.0" encoding="utf-8"?>
<!DOCTYPE svg PUBLIC "-//W3C//DTD SVG 1.1//EN" "http://www.w3.org/Graphics/SVG/1.1/DTD/svg11.dtd" [
	<!ENTITY ns_svg "http://www.w3.org/2000/svg">
	<!ENTITY ns_xlink "http://www.w3.org/1999/xlink">
]>
<svg  version="1.1" id="Layer_1" xmlns="&ns_svg;" xmlns:xlink="&ns_xlink;" width="975.937" height="293.293"
	 viewBox="0 0 975.937 293.293" overflow="visible" enable-background="new 0 0 975.937 293.293" xml:space="preserve">
<polyline fill="none" points="975.937,0 0,0 0,293.293 975.937,293.293 "/>
<path d="M380.537,158.563c0-12.674-0.265-22-0.775-30.432h20.74l0.885,17.985h0.675c4.663-13.341,15.705-20.139,25.924-20.139
	c2.345,0,3.705,0.09,5.621,0.52v22.557c-2.245-0.429-4.333-0.675-7.217-0.675c-11.408,0-19.328,7.264-21.462,18.113
	c-0.41,2.118-0.621,4.645-0.621,7.228v49.11h-23.962L380.537,158.563"/>
<path d="M504.169,165.243c0.111-8.778-3.711-23.077-19.754-23.077c-14.736,0-20.869,13.377-21.946,23.077H504.169 M462.516,181.933
	c0.638,17.154,13.915,24.656,29.253,24.656c11.014,0,18.89-1.717,26.135-4.38l3.551,16.479c-8.111,3.431-19.355,6.005-33.107,6.005
	c-30.74,0-48.762-18.989-48.762-48.016c0-26.134,15.858-50.872,46.317-50.872c30.796,0,40.826,25.331,40.826,46.063
	c0,4.453-0.393,8.031-0.858,10.229L462.516,181.933z"/>
<path d="M798.594,172.926c-20.328-0.583-47.186,2.492-47.186,24.911c0,13.423,8.862,19.455,18.588,19.455
	c15.566,0,24.412-9.636,27.63-18.725c0.678-1.998,0.968-3.996,0.968-5.593V172.926 M807.837,200.657
	c0,7.382,0.294,15.029,1.353,22.174h-8.505l-1.36-13.377h-0.436c-4.527,7.199-14.931,15.512-29.768,15.512
	c-18.788,0-27.541-13.222-27.541-25.677c0-21.543,19.027-34.528,57.014-34.136v-2.491c0-9.235-1.796-27.659-23.878-27.521
	c-8.168,0-16.681,2.19-23.444,6.961l-2.935-6.715c8.528-5.785,18.94-8.075,27.39-8.075c26.947,0,32.11,20.229,32.11,36.919V200.657z
	"/>
<path d="M844.61,108.87v20.576h26.61v7.501h-26.61v60.69c0,11.871,3.688,19.317,13.707,19.317c4.816,0,8.23-0.639,10.611-1.469
	l1.123,7.153c-3.021,1.259-7.255,2.245-12.883,2.245c-6.827,0-12.465-2.145-16.116-6.625c-4.233-4.909-5.675-12.747-5.675-22.265
	v-59.047h-15.761v-7.501h15.761v-17.163L844.61,108.87"/>
<path d="M692.51,127.311c-7.102,0-13.469,2.053-18.819,5.356c-5.546,3.249-10.071,8.267-12.756,13.468h-0.381V99.926l-9.234-2.519
	v125.423h9.234v-57.104c0-3.787,0.301-6.424,1.268-9.198c3.987-11.616,14.93-21.143,28.156-21.143
	c19.118,0,25.736,15.33,25.736,32.138v55.306h9.233v-56.32C724.947,131.736,701.359,127.311,692.51,127.311"/>
<g>
	<defs>
		<rect id="XMLID_1_" x="33.616" y="11.598" width="852.77" height="276.449"/>
	</defs>
	<clipPath id="XMLID_3_">
		<use xlink:href="#XMLID_1_" />
	</clipPath>
	<path clip-path="url(#XMLID_3_)" d="M605.969,181.768c0,2.509-0.184,4.855-0.73,6.99c-2.419,10.365-10.888,17.037-20.678,17.037
		c-15.082,0-23.715-12.711-23.715-30.113c0-17.565,8.558-31.161,23.987-31.161c10.769,0,18.471,7.592,20.587,16.808
		c0.411,1.944,0.549,4.335,0.549,6.242V181.768 M629.903,91.605l-23.935-6.479v53.198h-0.404
		c-4.232-6.999-13.567-12.346-26.543-12.346c-22.769,0-42.604,18.853-42.458,50.58c0,29.118,17.911,48.407,40.533,48.407
		c13.668,0,25.094-6.516,30.752-17.127h0.428l1.076,14.992h21.335c-0.439-6.434-0.784-16.863-0.784-26.554V91.605z"/>
	<path clip-path="url(#XMLID_3_)" d="M287.882,224.983c-5.33-1.223-10.977-1.989-16.698-1.989c-9.773,0-18.67,1.688-25.23,4.427
		c-0.731,0.355-1.242,1.113-1.242,1.971c0,0.311,0.082,0.63,0.202,0.895c0.775,2.254-0.503,4.689-6.854,6.086
		c-9.418,2.072-15.357,11.781-18.761,15.01c-3.996,3.797-15.274,6.133-13.577,3.869c1.323-1.77,6.405-7.281,9.489-13.249
		c2.765-5.319,5.22-6.835,8.614-11.917c0.994-1.488,4.845-6.725,5.968-10.868c1.259-4.052,0.831-9.124,1.313-11.214
		c0.694-3.012,3.542-9.544,3.75-13.241c0.128-2.089-8.713,2.975-12.912,2.975c-4.197,0-8.285-2.5-12.026-2.682
		c-4.645-0.229-7.619,3.577-11.817,2.911c-2.399-0.384-4.416-2.491-8.604-2.655c-5.967-0.22-13.249,3.321-26.936,2.874
		c-13.459-0.429-25.897-17.008-27.594-19.646c-1.988-3.094-4.417-3.094-7.062-0.657c-2.655,2.418-5.913,0.52-6.843-1.113
		c-1.771-3.085-6.489-12.118-13.798-14.016c-10.11-2.619-15.237,5.602-14.572,12.145c0.675,6.635,4.974,8.497,6.954,12.028
		c1.99,3.531,3.001,5.812,6.744,7.372c2.655,1.104,3.641,2.737,2.847,4.909c-0.693,1.898-3.449,2.336-5.256,2.419
		c-3.859,0.182-6.561-0.858-8.522-2.118c-2.29-1.459-4.161-3.485-6.16-6.934c-2.308-3.797-5.949-5.458-10.192-5.458
		c-2.025,0-3.914,0.539-5.602,1.406c-6.652,3.459-14.564,5.51-23.095,5.51h-9.609c-4.682-13.878-7.217-28.733-7.217-44.191
		c0-76.348,61.894-138.242,138.251-138.242c76.348,0,138.234,61.894,138.234,138.242
		C310.065,177.544,301.916,203.348,287.882,224.983"/>
	<path clip-path="url(#XMLID_3_)" fill="#FFFFFF" d="M287.882,224.983c-5.33-1.223-10.977-1.998-16.698-1.998
		c-9.773,0-18.67,1.697-25.23,4.426c-0.731,0.356-1.242,1.113-1.242,1.98c0,0.311,0.082,0.63,0.202,0.895
		c0.775,2.244-0.503,4.689-6.854,6.086c-9.418,2.061-15.357,11.781-18.761,15c-3.996,3.807-15.274,6.133-13.577,3.871
		c1.323-1.762,6.405-7.281,9.489-13.241c2.765-5.319,5.22-6.843,8.614-11.927c0.994-1.486,4.845-6.725,5.968-10.867
		c1.259-4.043,0.831-9.115,1.313-11.205c0.694-3.012,3.542-9.554,3.75-13.25c0.128-2.08-8.713,2.983-12.912,2.983
		c-4.197,0-8.285-2.509-12.026-2.691c-4.645-0.22-7.619,3.577-11.817,2.919c-2.399-0.392-4.416-2.5-8.604-2.655
		c-5.967-0.22-13.249,3.312-26.936,2.874c-13.459-0.438-25.897-17.018-27.594-19.655c-1.988-3.084-4.417-3.084-7.062-0.656
		c-2.655,2.426-5.913,0.519-6.843-1.114c-1.771-3.085-6.489-12.118-13.798-14.007c-10.11-2.619-15.237,5.594-14.572,12.136
		c0.675,6.643,4.974,8.505,6.954,12.026c1.99,3.541,3.001,5.813,6.744,7.374c2.655,1.104,3.641,2.737,2.847,4.917
		c-0.693,1.889-3.449,2.327-5.256,2.409c-3.859,0.192-6.561-0.857-8.522-2.107c-2.29-1.469-4.161-3.495-6.16-6.934
		c-2.308-3.806-5.949-5.467-10.192-5.467c-2.025,0-3.914,0.539-5.602,1.406c-6.652,3.468-14.564,5.512-23.095,5.512l-9.609,0.008
		c18.433,54.678,70.134,94.051,131.034,94.051C220.467,288.083,263.245,262.963,287.882,224.983"/>
</g>
<path d="M202.271,212.309c0.712,0.693,1.936,3.029,0.438,5.986c-0.839,1.57-1.743,2.674-3.358,3.961
	c-1.944,1.559-5.749,3.357-10.959,0.055c-2.801-1.78-2.974-2.373-6.844-1.871c-2.765,0.355-3.869-2.428-2.875-4.754
	c0.995-2.309,5.083-4.189,10.157-1.205c2.29,1.341,5.849,4.17,8.969,1.661c1.287-1.04,2.062-1.726,3.86-3.797
	c0.082-0.091,0.192-0.146,0.32-0.146C202.089,212.2,202.199,212.245,202.271,212.309"/>
<path fill="#EF1209" d="M161.073,77.425c-15.968,1.158-17.629,2.883-20.622,6.067c-4.216,4.489-9.773-5.831-9.773-5.831
	c-3.33-0.703-7.372-6.078-5.192-11.096c2.145-4.963,6.114-3.476,7.354-1.926c1.515,1.88,4.745,4.956,8.933,4.846
	c4.19-0.11,9.025-0.994,15.769-0.994c6.834,0,11.434,2.554,11.688,4.745C169.45,75.107,168.675,76.878,161.073,77.425
	 M177.844,51.035c-0.027,0.009-0.045,0.009-0.072,0.009c-0.246,0-0.447-0.191-0.447-0.419c0-0.165,0.1-0.311,0.255-0.375
	c3.094-1.642,7.71-2.938,12.994-3.476c1.588-0.165,3.139-0.247,4.626-0.265c0.264,0,0.529,0.009,0.793,0.009
	c8.86,0.202,15.96,3.723,15.85,7.867c-0.109,4.142-7.372,7.336-16.232,7.144c-2.866-0.073-5.558-0.483-7.875-1.149
	c-0.273-0.074-0.475-0.311-0.475-0.584c0-0.283,0.202-0.511,0.475-0.583c5.53-1.278,9.262-3.368,8.997-5.348
	c-0.347-2.619-7.573-4.042-16.151-3.175C179.652,50.78,178.729,50.898,177.844,51.035z M249.831,113.058
	c-1.359,4.598-3.303,10.466-11.945,14.91c-1.259,0.638-1.742-0.42-1.159-1.414c3.267-5.548,3.842-6.945,4.792-9.135
	c1.331-3.203,2.026-7.766-0.612-17.274c-5.202-18.706-16.051-43.716-23.936-51.829c-7.601-7.83-21.389-10.029-33.853-6.834
	c-4.581,1.176-13.56,5.85-30.212,2.098c-28.817-6.488-33.087,7.938-34.738,14.226c-1.652,6.288-5.621,24.145-5.621,24.145
	c-1.323,7.282-3.057,19.93,41.683,28.452c20.841,3.969,21.899,9.353,22.83,13.231c1.652,6.944,4.298,10.922,7.274,12.902
	c2.974,1.99,0,3.632-3.304,3.969c-8.878,0.921-41.683-8.486-61.092-19.518c-15.885-9.7-16.151-18.441-12.518-25.852
	c-23.98-2.6-41.985,2.246-45.251,13.596c-5.603,19.501,42.85,52.779,98.02,69.487c57.888,17.528,117.438,5.292,124.053-31.098
	C287.244,130.586,273.319,118.36,249.831,113.058z"/>
<path d="M304.755,218.934v-1.195h0.802c0.41,0,0.849,0.082,0.849,0.565c0,0.602-0.447,0.63-0.949,0.63H304.755 M304.755,219.436
	h0.675l1.021,1.688h0.666l-1.114-1.715c0.576-0.074,1.014-0.375,1.014-1.068c0-0.766-0.458-1.104-1.379-1.104h-1.478v3.887h0.594
	V219.436z"/>
<path d="M305.448,216.05c-1.725,0-3.13,1.405-3.13,3.13c0,1.733,1.405,3.131,3.13,3.131c1.724,0,3.13-1.397,3.13-3.131
	C308.578,217.456,307.172,216.05,305.448,216.05 M309.252,219.18c0,2.107-1.697,3.805-3.805,3.805c-2.099,0-3.805-1.697-3.805-3.805
	c0-2.099,1.706-3.805,3.805-3.805C307.556,215.375,309.252,217.082,309.252,219.18z"/>
<path d="M881.201,217.94v-1.379h0.923c0.474,0,0.977,0.102,0.977,0.648c0,0.693-0.513,0.73-1.088,0.73H881.201 M881.201,218.514
	h0.786l1.177,1.935h0.756l-1.268-1.962c0.657-0.092,1.161-0.429,1.161-1.232c0-0.885-0.529-1.269-1.58-1.269h-1.706v4.463h0.674
	V218.514z"/>
<path d="M882.005,214.627c-1.989,0-3.594,1.605-3.594,3.594c0,1.99,1.604,3.605,3.594,3.605c1.992,0,3.597-1.615,3.597-3.605
	C885.602,216.233,883.997,214.627,882.005,214.627 M886.386,218.221c0,2.42-1.962,4.371-4.381,4.371c-2.408,0-4.37-1.951-4.37-4.371
	c0-2.418,1.962-4.369,4.37-4.369C884.424,213.852,886.386,215.803,886.386,218.221z"/>
</svg>
